# xmcd
#
# Track frame offsets:
# 150
# 15927
# 29612
# 39382
# 52161
# 71717
# 89150
# 107907
# 127083
# 142463
#
# Disc length: 2129 seconds
#
#
# Revision: 0
# Processed by: cddbd v1.5.1PL0 Copyright (c) Steve Scherf et al.
# Submitted via: FreeRIP 2.53 
#
DISCID=9c084f0a
DTITLE=Shane Teinaki - I Thank You...
DYEAR=2002
DGENRE=Country
TTITLE0=I Wanna Dance With You
TTITLE1=Fire Without A Spark
TTITLE2=Kiss An Angel Goodmorning
TTITLE3=Love A Rainy Night
TTITLE4=Margarittaville
TTITLE5=On The Other Hand
TTITLE6=I Thank You
TTITLE7=Rear View Mirror
TTITLE8=Fly Like A Bird
TTITLE9=Spanish Eyes
EXTD=
EXTT0=
EXTT1=
EXTT2=
EXTT3=
EXTT4=
EXTT5=
EXTT6=
EXTT7=
EXTT8=
EXTT9=
PLAYORDER=
